<mxfile host="app.diagrams.net" modified="2023-10-17T16:31:35.232Z" agent="Mozilla/5.0 (Windows NT 10.0; Win64; x64) AppleWebKit/537.36 (KHTML, like Gecko) Chrome/117.0.0.0 Safari/537.36" etag="CnZAUcNXUAaIJtQRwPF_" version="22.0.4" type="github">
  <diagram name="Page-1" id="nxq5DvykK3slN9yMiksr">
    <mxGraphModel dx="1744" dy="946" grid="1" gridSize="10" guides="1" tooltips="1" connect="1" arrows="1" fold="1" page="1" pageScale="1" pageWidth="850" pageHeight="1100" math="0" shadow="0">
      <root>
        <mxCell id="0" />
        <mxCell id="1" parent="0" />
        <mxCell id="N0uQM0Zfy7o0opPlcUw2-3" value="" style="edgeStyle=orthogonalEdgeStyle;rounded=0;orthogonalLoop=1;jettySize=auto;html=1;" edge="1" parent="1" source="N0uQM0Zfy7o0opPlcUw2-1" target="N0uQM0Zfy7o0opPlcUw2-2">
          <mxGeometry relative="1" as="geometry" />
        </mxCell>
        <mxCell id="N0uQM0Zfy7o0opPlcUw2-1" value="Start" style="rounded=0;whiteSpace=wrap;html=1;" vertex="1" parent="1">
          <mxGeometry x="140" y="80" width="120" height="80" as="geometry" />
        </mxCell>
        <mxCell id="N0uQM0Zfy7o0opPlcUw2-5" value="" style="edgeStyle=orthogonalEdgeStyle;rounded=0;orthogonalLoop=1;jettySize=auto;html=1;" edge="1" parent="1" source="N0uQM0Zfy7o0opPlcUw2-2" target="N0uQM0Zfy7o0opPlcUw2-4">
          <mxGeometry relative="1" as="geometry" />
        </mxCell>
        <mxCell id="N0uQM0Zfy7o0opPlcUw2-2" value="Customer&#39;s name" style="shape=parallelogram;perimeter=parallelogramPerimeter;whiteSpace=wrap;html=1;fixedSize=1;rounded=0;" vertex="1" parent="1">
          <mxGeometry x="120" y="250" width="160" height="70" as="geometry" />
        </mxCell>
        <mxCell id="N0uQM0Zfy7o0opPlcUw2-7" value="" style="edgeStyle=orthogonalEdgeStyle;rounded=0;orthogonalLoop=1;jettySize=auto;html=1;" edge="1" parent="1" source="N0uQM0Zfy7o0opPlcUw2-4" target="N0uQM0Zfy7o0opPlcUw2-6">
          <mxGeometry relative="1" as="geometry" />
        </mxCell>
        <mxCell id="N0uQM0Zfy7o0opPlcUw2-4" value="Last month&#39;s water meter reading" style="shape=parallelogram;perimeter=parallelogramPerimeter;whiteSpace=wrap;html=1;fixedSize=1;rounded=0;" vertex="1" parent="1">
          <mxGeometry x="120" y="400" width="160" height="70" as="geometry" />
        </mxCell>
        <mxCell id="N0uQM0Zfy7o0opPlcUw2-9" value="" style="edgeStyle=orthogonalEdgeStyle;rounded=0;orthogonalLoop=1;jettySize=auto;html=1;" edge="1" parent="1" source="N0uQM0Zfy7o0opPlcUw2-6" target="N0uQM0Zfy7o0opPlcUw2-8">
          <mxGeometry relative="1" as="geometry" />
        </mxCell>
        <mxCell id="N0uQM0Zfy7o0opPlcUw2-6" value="This month&#39;s water meter reading" style="shape=parallelogram;perimeter=parallelogramPerimeter;whiteSpace=wrap;html=1;fixedSize=1;rounded=0;" vertex="1" parent="1">
          <mxGeometry x="120" y="550" width="160" height="70" as="geometry" />
        </mxCell>
        <mxCell id="N0uQM0Zfy7o0opPlcUw2-8" value="Customer type" style="shape=parallelogram;perimeter=parallelogramPerimeter;whiteSpace=wrap;html=1;fixedSize=1;rounded=0;" vertex="1" parent="1">
          <mxGeometry x="120" y="700" width="160" height="70" as="geometry" />
        </mxCell>
        <mxCell id="N0uQM0Zfy7o0opPlcUw2-12" value="" style="endArrow=none;html=1;rounded=0;exitX=1;exitY=0.5;exitDx=0;exitDy=0;" edge="1" parent="1" source="N0uQM0Zfy7o0opPlcUw2-8">
          <mxGeometry width="50" height="50" relative="1" as="geometry">
            <mxPoint x="520" y="570" as="sourcePoint" />
            <mxPoint x="320" y="735" as="targetPoint" />
          </mxGeometry>
        </mxCell>
        <mxCell id="N0uQM0Zfy7o0opPlcUw2-13" value="" style="endArrow=none;html=1;rounded=0;" edge="1" parent="1">
          <mxGeometry width="50" height="50" relative="1" as="geometry">
            <mxPoint x="320" y="740" as="sourcePoint" />
            <mxPoint x="320" y="560" as="targetPoint" />
          </mxGeometry>
        </mxCell>
        <mxCell id="N0uQM0Zfy7o0opPlcUw2-14" value="" style="endArrow=classic;html=1;rounded=0;" edge="1" parent="1">
          <mxGeometry width="50" height="50" relative="1" as="geometry">
            <mxPoint x="320" y="560" as="sourcePoint" />
            <mxPoint x="440" y="560" as="targetPoint" />
          </mxGeometry>
        </mxCell>
        <mxCell id="N0uQM0Zfy7o0opPlcUw2-15" value="Household" style="rhombus;whiteSpace=wrap;html=1;" vertex="1" parent="1">
          <mxGeometry x="440" y="520" width="160" height="80" as="geometry" />
        </mxCell>
        <mxCell id="N0uQM0Zfy7o0opPlcUw2-17" value="" style="endArrow=none;html=1;rounded=0;" edge="1" parent="1">
          <mxGeometry width="50" height="50" relative="1" as="geometry">
            <mxPoint x="320" y="740" as="sourcePoint" />
            <mxPoint x="320" y="1120" as="targetPoint" />
          </mxGeometry>
        </mxCell>
        <mxCell id="N0uQM0Zfy7o0opPlcUw2-18" value="" style="endArrow=classic;html=1;rounded=0;" edge="1" parent="1" target="N0uQM0Zfy7o0opPlcUw2-19">
          <mxGeometry width="50" height="50" relative="1" as="geometry">
            <mxPoint x="320" y="800" as="sourcePoint" />
            <mxPoint x="440" y="800" as="targetPoint" />
          </mxGeometry>
        </mxCell>
        <mxCell id="N0uQM0Zfy7o0opPlcUw2-35" value="" style="edgeStyle=orthogonalEdgeStyle;rounded=0;orthogonalLoop=1;jettySize=auto;html=1;" edge="1" parent="1" source="N0uQM0Zfy7o0opPlcUw2-19" target="N0uQM0Zfy7o0opPlcUw2-34">
          <mxGeometry relative="1" as="geometry" />
        </mxCell>
        <mxCell id="N0uQM0Zfy7o0opPlcUw2-19" value="Administrative agencies, public services" style="rhombus;whiteSpace=wrap;html=1;" vertex="1" parent="1">
          <mxGeometry x="440" y="760" width="160" height="80" as="geometry" />
        </mxCell>
        <mxCell id="N0uQM0Zfy7o0opPlcUw2-21" value="" style="endArrow=classic;html=1;rounded=0;" edge="1" parent="1" target="N0uQM0Zfy7o0opPlcUw2-22">
          <mxGeometry width="50" height="50" relative="1" as="geometry">
            <mxPoint x="320" y="960" as="sourcePoint" />
            <mxPoint x="440" y="960" as="targetPoint" />
          </mxGeometry>
        </mxCell>
        <mxCell id="N0uQM0Zfy7o0opPlcUw2-37" value="" style="edgeStyle=orthogonalEdgeStyle;rounded=0;orthogonalLoop=1;jettySize=auto;html=1;" edge="1" parent="1" source="N0uQM0Zfy7o0opPlcUw2-22" target="N0uQM0Zfy7o0opPlcUw2-36">
          <mxGeometry relative="1" as="geometry" />
        </mxCell>
        <mxCell id="N0uQM0Zfy7o0opPlcUw2-22" value="Production units" style="rhombus;whiteSpace=wrap;html=1;" vertex="1" parent="1">
          <mxGeometry x="440" y="920" width="160" height="80" as="geometry" />
        </mxCell>
        <mxCell id="N0uQM0Zfy7o0opPlcUw2-23" value="" style="endArrow=classic;html=1;rounded=0;" edge="1" parent="1" target="N0uQM0Zfy7o0opPlcUw2-24">
          <mxGeometry width="50" height="50" relative="1" as="geometry">
            <mxPoint x="320" y="1120" as="sourcePoint" />
            <mxPoint x="440" y="1080" as="targetPoint" />
          </mxGeometry>
        </mxCell>
        <mxCell id="N0uQM0Zfy7o0opPlcUw2-39" value="" style="edgeStyle=orthogonalEdgeStyle;rounded=0;orthogonalLoop=1;jettySize=auto;html=1;" edge="1" parent="1" source="N0uQM0Zfy7o0opPlcUw2-24" target="N0uQM0Zfy7o0opPlcUw2-38">
          <mxGeometry relative="1" as="geometry" />
        </mxCell>
        <mxCell id="N0uQM0Zfy7o0opPlcUw2-24" value="Business services" style="rhombus;whiteSpace=wrap;html=1;" vertex="1" parent="1">
          <mxGeometry x="440" y="1080" width="160" height="80" as="geometry" />
        </mxCell>
        <mxCell id="N0uQM0Zfy7o0opPlcUw2-25" value="" style="endArrow=none;html=1;rounded=0;" edge="1" parent="1">
          <mxGeometry width="50" height="50" relative="1" as="geometry">
            <mxPoint x="600" y="680" as="sourcePoint" />
            <mxPoint x="600" y="320" as="targetPoint" />
          </mxGeometry>
        </mxCell>
        <mxCell id="N0uQM0Zfy7o0opPlcUw2-26" value="" style="endArrow=classic;html=1;rounded=0;" edge="1" parent="1" target="N0uQM0Zfy7o0opPlcUw2-27">
          <mxGeometry width="50" height="50" relative="1" as="geometry">
            <mxPoint x="600" y="320" as="sourcePoint" />
            <mxPoint x="680" y="320" as="targetPoint" />
          </mxGeometry>
        </mxCell>
        <mxCell id="N0uQM0Zfy7o0opPlcUw2-27" value="To 10m3/people/month&lt;br&gt;5.973 VND/m3&lt;br&gt;Environmental protection fees: 597.3 VND" style="rounded=0;whiteSpace=wrap;html=1;" vertex="1" parent="1">
          <mxGeometry x="640" y="280" width="160" height="80" as="geometry" />
        </mxCell>
        <mxCell id="N0uQM0Zfy7o0opPlcUw2-41" style="edgeStyle=orthogonalEdgeStyle;rounded=0;orthogonalLoop=1;jettySize=auto;html=1;exitX=1;exitY=0.5;exitDx=0;exitDy=0;" edge="1" parent="1" source="N0uQM0Zfy7o0opPlcUw2-28">
          <mxGeometry relative="1" as="geometry">
            <mxPoint x="880" y="440" as="targetPoint" />
          </mxGeometry>
        </mxCell>
        <mxCell id="N0uQM0Zfy7o0opPlcUw2-28" value="From 10-20m3/people/month&lt;br style=&quot;border-color: var(--border-color);&quot;&gt;7.052 VND/m3&lt;br style=&quot;border-color: var(--border-color);&quot;&gt;Environmental protection fees: 705.2 VND" style="rounded=0;whiteSpace=wrap;html=1;" vertex="1" parent="1">
          <mxGeometry x="640" y="400" width="160" height="80" as="geometry" />
        </mxCell>
        <mxCell id="N0uQM0Zfy7o0opPlcUw2-29" value="" style="endArrow=classic;html=1;rounded=0;entryX=0;entryY=0.5;entryDx=0;entryDy=0;" edge="1" parent="1" target="N0uQM0Zfy7o0opPlcUw2-28">
          <mxGeometry width="50" height="50" relative="1" as="geometry">
            <mxPoint x="600" y="440" as="sourcePoint" />
            <mxPoint x="610" y="520" as="targetPoint" />
          </mxGeometry>
        </mxCell>
        <mxCell id="N0uQM0Zfy7o0opPlcUw2-42" style="edgeStyle=orthogonalEdgeStyle;rounded=0;orthogonalLoop=1;jettySize=auto;html=1;exitX=1;exitY=0.5;exitDx=0;exitDy=0;" edge="1" parent="1" source="N0uQM0Zfy7o0opPlcUw2-30">
          <mxGeometry relative="1" as="geometry">
            <mxPoint x="880" y="560" as="targetPoint" />
          </mxGeometry>
        </mxCell>
        <mxCell id="N0uQM0Zfy7o0opPlcUw2-30" value="From 20-30m3/people/month&lt;br style=&quot;border-color: var(--border-color);&quot;&gt;8.099 VND/m3&lt;br style=&quot;border-color: var(--border-color);&quot;&gt;Environmental protection fees: 806.9 VND" style="rounded=0;whiteSpace=wrap;html=1;" vertex="1" parent="1">
          <mxGeometry x="640" y="520" width="160" height="80" as="geometry" />
        </mxCell>
        <mxCell id="N0uQM0Zfy7o0opPlcUw2-31" value="" style="endArrow=classic;html=1;rounded=0;entryX=0;entryY=0.5;entryDx=0;entryDy=0;" edge="1" parent="1" target="N0uQM0Zfy7o0opPlcUw2-30">
          <mxGeometry width="50" height="50" relative="1" as="geometry">
            <mxPoint x="600" y="560" as="sourcePoint" />
            <mxPoint x="610" y="720" as="targetPoint" />
          </mxGeometry>
        </mxCell>
        <mxCell id="N0uQM0Zfy7o0opPlcUw2-43" style="edgeStyle=orthogonalEdgeStyle;rounded=0;orthogonalLoop=1;jettySize=auto;html=1;exitX=1;exitY=0.5;exitDx=0;exitDy=0;" edge="1" parent="1" source="N0uQM0Zfy7o0opPlcUw2-32">
          <mxGeometry relative="1" as="geometry">
            <mxPoint x="880" y="680" as="targetPoint" />
          </mxGeometry>
        </mxCell>
        <mxCell id="N0uQM0Zfy7o0opPlcUw2-32" value="Over 30m3/people/month&lt;br style=&quot;border-color: var(--border-color);&quot;&gt;15.929 VND/m3&lt;br style=&quot;border-color: var(--border-color);&quot;&gt;Environmental protection fees: 1692.9 VND" style="rounded=0;whiteSpace=wrap;html=1;" vertex="1" parent="1">
          <mxGeometry x="640" y="640" width="160" height="80" as="geometry" />
        </mxCell>
        <mxCell id="N0uQM0Zfy7o0opPlcUw2-33" value="" style="endArrow=classic;html=1;rounded=0;entryX=0;entryY=0.5;entryDx=0;entryDy=0;" edge="1" parent="1" target="N0uQM0Zfy7o0opPlcUw2-32">
          <mxGeometry width="50" height="50" relative="1" as="geometry">
            <mxPoint x="600" y="680" as="sourcePoint" />
            <mxPoint x="610" y="620" as="targetPoint" />
          </mxGeometry>
        </mxCell>
        <mxCell id="N0uQM0Zfy7o0opPlcUw2-44" style="edgeStyle=orthogonalEdgeStyle;rounded=0;orthogonalLoop=1;jettySize=auto;html=1;exitX=1;exitY=0.5;exitDx=0;exitDy=0;" edge="1" parent="1" source="N0uQM0Zfy7o0opPlcUw2-34">
          <mxGeometry relative="1" as="geometry">
            <mxPoint x="880" y="800" as="targetPoint" />
          </mxGeometry>
        </mxCell>
        <mxCell id="N0uQM0Zfy7o0opPlcUw2-34" value="9956 VND/m3&lt;br&gt;Environment protection fees: 995.5 VND" style="whiteSpace=wrap;html=1;" vertex="1" parent="1">
          <mxGeometry x="640" y="760" width="160" height="80" as="geometry" />
        </mxCell>
        <mxCell id="N0uQM0Zfy7o0opPlcUw2-45" style="edgeStyle=orthogonalEdgeStyle;rounded=0;orthogonalLoop=1;jettySize=auto;html=1;exitX=1;exitY=0.5;exitDx=0;exitDy=0;" edge="1" parent="1" source="N0uQM0Zfy7o0opPlcUw2-36">
          <mxGeometry relative="1" as="geometry">
            <mxPoint x="880" y="960" as="targetPoint" />
          </mxGeometry>
        </mxCell>
        <mxCell id="N0uQM0Zfy7o0opPlcUw2-36" value="11615 VND/m3&lt;br&gt;Environment protection fees: 1161.5 VND" style="whiteSpace=wrap;html=1;" vertex="1" parent="1">
          <mxGeometry x="640" y="920" width="160" height="80" as="geometry" />
        </mxCell>
        <mxCell id="N0uQM0Zfy7o0opPlcUw2-46" style="edgeStyle=orthogonalEdgeStyle;rounded=0;orthogonalLoop=1;jettySize=auto;html=1;exitX=1;exitY=0.5;exitDx=0;exitDy=0;" edge="1" parent="1" source="N0uQM0Zfy7o0opPlcUw2-38">
          <mxGeometry relative="1" as="geometry">
            <mxPoint x="880" y="1120" as="targetPoint" />
          </mxGeometry>
        </mxCell>
        <mxCell id="N0uQM0Zfy7o0opPlcUw2-38" value="22068 VND/m3&lt;br&gt;Environment protection fees: 2206.8 VND" style="whiteSpace=wrap;html=1;" vertex="1" parent="1">
          <mxGeometry x="640" y="1080" width="160" height="80" as="geometry" />
        </mxCell>
        <mxCell id="N0uQM0Zfy7o0opPlcUw2-40" value="" style="endArrow=classic;html=1;rounded=0;exitX=1;exitY=0.5;exitDx=0;exitDy=0;" edge="1" parent="1" source="N0uQM0Zfy7o0opPlcUw2-27">
          <mxGeometry width="50" height="50" relative="1" as="geometry">
            <mxPoint x="780" y="570" as="sourcePoint" />
            <mxPoint x="880" y="320" as="targetPoint" />
          </mxGeometry>
        </mxCell>
        <mxCell id="N0uQM0Zfy7o0opPlcUw2-48" value="" style="endArrow=none;html=1;rounded=0;" edge="1" parent="1">
          <mxGeometry width="50" height="50" relative="1" as="geometry">
            <mxPoint x="880" y="320" as="sourcePoint" />
            <mxPoint x="880" y="1120.6666259765625" as="targetPoint" />
          </mxGeometry>
        </mxCell>
        <mxCell id="N0uQM0Zfy7o0opPlcUw2-49" value="" style="endArrow=classic;html=1;rounded=0;" edge="1" parent="1" target="N0uQM0Zfy7o0opPlcUw2-50">
          <mxGeometry width="50" height="50" relative="1" as="geometry">
            <mxPoint x="880" y="760" as="sourcePoint" />
            <mxPoint x="1000" y="760" as="targetPoint" />
          </mxGeometry>
        </mxCell>
        <mxCell id="N0uQM0Zfy7o0opPlcUw2-53" value="" style="edgeStyle=orthogonalEdgeStyle;rounded=0;orthogonalLoop=1;jettySize=auto;html=1;" edge="1" parent="1" source="N0uQM0Zfy7o0opPlcUw2-50" target="N0uQM0Zfy7o0opPlcUw2-52">
          <mxGeometry relative="1" as="geometry" />
        </mxCell>
        <mxCell id="N0uQM0Zfy7o0opPlcUw2-50" value="Prtint waterbill" style="shape=parallelogram;perimeter=parallelogramPerimeter;whiteSpace=wrap;html=1;fixedSize=1;" vertex="1" parent="1">
          <mxGeometry x="1000" y="720" width="160" height="80" as="geometry" />
        </mxCell>
        <mxCell id="N0uQM0Zfy7o0opPlcUw2-52" value="End" style="text;html=1;strokeColor=none;fillColor=none;align=center;verticalAlign=middle;whiteSpace=wrap;rounded=0;" vertex="1" parent="1">
          <mxGeometry x="1215" y="745" width="60" height="30" as="geometry" />
        </mxCell>
      </root>
    </mxGraphModel>
  </diagram>
</mxfile>
